nColumns=19
nRows=26
DataType=double
version=3
OpenSimVersion=4.1
endheader
time	ground_force_calcn_r_vx	ground_force_calcn_r_vy	ground_force_calcn_r_vz	ground_force_calcn_r_px	ground_force_calcn_r_py	ground_force_calcn_r_pz	ground_force_calcn_r_mx	ground_force_calcn_r_my	ground_force_calcn_r_mz	ground_force_calcn_l_vx	ground_force_calcn_l_vy	ground_force_calcn_l_vz	ground_force_calcn_l_px	ground_force_calcn_l_py	ground_force_calcn_l_pz	ground_force_calcn_l_mx	ground_force_calcn_l_my	ground_force_calcn_l_mz
1.18	-49.874	65.8898	-2.49729	-0.0552455	0	-0.464687	0.0054256	-0.0071679	0.000271671	-74.0676	96.457	17.4358	-0.0958754	0	-0.812967	0.323828	-0.421715	-0.0762304
1.19	-335.825	504.562	-10.8894	-0.0807624	0	-0.462505	-0.547063	0.821937	-0.0177389	-418.747	618.832	64.3095	-0.113391	0	-0.817255	0.66275	-0.979426	-0.101783
1.2	-442.134	815.518	-40.2446	-0.0914321	0	-0.462517	-1.80116	3.32226	-0.163948	-472.545	837.348	102.168	-0.121001	0	-0.818852	1.36713	-2.42255	-0.295586
1.21	-110.048	649.134	-53.7825	-0.105405	0	-0.459399	-0.672122	3.96461	-0.328479	-132.547	849.839	106.683	-0.168301	0	-0.811423	1.05233	-6.74713	-0.846987
1.22	-82.8779	723.547	-54.6734	-0.131405	0	-0.458898	-0.158512	1.38385	-0.104568	5.79968	1472.45	91.9031	-0.228494	0	-0.796336	0.00959362	2.43568	0.152023
1.23	-196.651	1171.31	-76.6607	-0.175846	0	-0.463194	0.564006	-3.35939	0.219867	6.65633	1728.01	-18.6203	-0.240477	0	-0.787156	0.0595107	15.4493	-0.166474
1.24	-175.769	1526.78	-31.821	-0.201394	0	-0.469311	1.18924	-10.33	0.215298	-261.141	1225.23	-32.5512	-0.212402	0	-0.790002	-4.4953	21.0911	-0.560339
1.25	-210.749	1265.13	40.5979	-0.19352	0	-0.472325	2.23562	-13.4205	-0.430661	-434.19	889.24	54.5612	-0.173985	0	-0.803206	-7.66555	15.6994	0.963269
1.26	-279.814	859.675	31.7309	-0.162998	0	-0.46845	3.59572	-11.0472	-0.407755	-326.896	853.508	107.715	-0.178063	0	-0.803844	-4.11495	10.7439	1.35591
1.27	-295.376	680.218	-26.5411	-0.140343	0	-0.461494	2.70366	-6.22622	0.242938	-169.407	963.846	122.19	-0.200633	0	-0.798952	-1.68677	9.5969	1.21663
1.28	-253.497	672.007	-56.5149	-0.144204	0	-0.459217	1.60389	-4.25184	0.357573	-110.688	993.191	89.706	-0.208034	0	-0.794706	-1.19876	10.7563	0.97152
1.29	-177.919	758.529	-47.1214	-0.163832	0	-0.462205	1.48265	-6.32106	0.392677	-128.626	991.292	47.9228	-0.206709	0	-0.791064	-1.61216	12.4246	0.600653
1.3	-111.089	884.481	-28.5726	-0.182254	0	-0.46712	1.29677	-10.3248	0.333536	-97.8607	1061.24	31.7867	-0.212472	0	-0.7876	-1.15451	12.5201	0.375004
1.31	-80.0363	969.947	-17.8552	-0.191783	0	-0.470485	1.13294	-13.7299	0.252745	-40.9922	1145.65	37.2551	-0.220365	0	-0.78587	-0.40844	11.4151	0.371203
1.32	-69.4778	986.589	-21.4703	-0.194855	0	-0.471568	1.08936	-15.469	0.33664	-14.916	1148.46	43.4879	-0.22269	0	-0.785524	-0.137063	10.5532	0.399611
1.33	-55.5518	975.042	-35.3884	-0.196119	0	-0.471326	0.927526	-16.2799	0.590866	-11.4736	1101.85	40.2733	-0.221194	0	-0.785295	-0.106266	10.2052	0.373004
1.34	-34.8266	976.837	-44.4433	-0.197773	0	-0.471478	0.610527	-17.1244	0.779111	-2.64538	1079.65	38.5687	-0.220106	0	-0.785002	-0.0240608	9.81982	0.350798
1.35	-12.5803	997.843	-44.3796	-0.198762	0	-0.472221	0.228486	-18.123	0.806031	7.025	1098.43	40.196	-0.219766	0	-0.784709	0.0590287	9.22976	0.337753
1.36	4.2372	1016.35	-42.5784	-0.196592	0	-0.472677	-0.0769855	-18.466	0.773605	18.7352	1134.83	38.3561	-0.219284	0	-0.784252	0.141449	8.5679	0.289585
1.37	11.7086	1008.57	-46.0979	-0.190355	0	-0.472162	-0.205181	-17.6742	0.807821	34.658	1161.99	33.6334	-0.217121	0	-0.783891	0.233055	7.81368	0.226165
1.38	15.5452	981.276	-51.3953	-0.181628	0	-0.471135	-0.260729	-16.4582	0.862017	41.3265	1163.93	29.8107	-0.211783	0	-0.784001	0.249297	7.02126	0.179829
1.39	17.9481	956.001	-52.2016	-0.172221	0	-0.470515	-0.297675	-15.8556	0.865781	30.589	1142.14	29.4443	-0.203765	0	-0.78464	0.173233	6.46823	0.16675
1.4	12.8292	946.718	-52.2388	-0.163344	0	-0.470178	-0.216191	-15.9535	0.880297	15.8952	1114.8	32.9805	-0.195281	0	-0.785645	0.0898965	6.30483	0.186524
1.41	4.72161	960.842	-56.7656	-0.156653	0	-0.469883	-0.078739	-16.0233	0.94664	7.12978	1102.55	36.5909	-0.188119	0	-0.786646	0.0428623	6.62822	0.219975
1.42	-0.121475	987.232	-63.6852	-0.152105	0	-0.46966	0.00195705	-15.9051	1.02602	4.12994	1113.32	36.3852	-0.183156	0	-0.787203	0.0273838	7.38191	0.241254
1.43	-5.90708	1004.31	-68.729	-0.147895	0	-0.469618	0.0925059	-15.7277	1.07631	7.23751	1130.14	34.8131	-0.179866	0	-0.787424	0.0517796	8.0854	0.249065
